# xmcd CD database file
# Copyright (C) 1995 Ti Kan
#
# Track frame offsets:
#	150
#	13630
#	31620
#	53860
#	69275
#	82595
#	95567
#	111865
#	124390
#	148020
#
# Disc length: 2640 seconds
#
# Revision: 1
# Processed by: cddbd v1.4b41PL1 Copyright (c) Steve Scherf et al.
# Submitted via: xmcd 1.4
#
DISCID=790a4e0a
DTITLE=Boogie with Canned Heat
DYEAR=1900
DGENRE=
TTITLE0=Evil Woman
TTITLE1=My Crime
TTITLE2=On the Road Again
TTITLE3=World in a jug
TTITLE4=Turpentine Moan
TTITLE5=Whisky headed woman No. 2
TTITLE6=Amphetamine Annie
TTITLE7=An Owl Song
TTITLE8=Marie Laveau
TTITLE9=Fried Hockey Boogie
EXTD=
EXTT0=
EXTT1=
EXTT2=
EXTT3=
EXTT4=
EXTT5=
EXTT6=
EXTT7=
EXTT8=
EXTT9=
PLAYORDER=
